<svg xmlns="http://www.w3.org/2000/svg" width="200.03" height="187.76" viewBox="0 0 200.03 187.76">
  <defs>
    <style>
      .cls-1 {
        fill: #7b6861;
      }

      .cls-2 {
        fill: #d8cdc7;
      }

      .cls-3 {
        fill: none;
        stroke: #000;
        stroke-miterlimit: 10;
      }
    </style>
  </defs>
  <g id="Camada_2" data-name="Camada 2">
    <g id="cartC">
      <path id="background" class="cls-1" d="M105.17,86.91c39.54,11.43,99.09-14.77,94.62,27.56-5.11,48.41-70.14,84.92-124.06,69.85s-90.59-80-69.85-124.06C24.21,21.29,64.69,75.2,105.17,86.91Z"/>
      <g>
        <g>
          <path class="cls-1" d="M157.34,134.29c1.37,7.77-2.09,14.87-7.73,15.86-4.57.81-9.18-2.65-11.47-8.13,10.58,6.36,12.52-5.29,12.52-5.29l-4.94-14.81C151,121.73,156.06,127,157.34,134.29Z"/>
          <path class="cls-2" d="M145.72,121.92l4.94,14.81s-1.94,11.65-12.52,5.29h0l-.17-.42,6.2-2.37c1-3-2-5-2-5l-6.26,2.35-10.24-29.85,12.88-4.29,0-.28.59.07Z"/>
          <path class="cls-2" d="M148.16,67.39c2.37,9,2,21.36-9,34.84l-.59-.07,4.09-33.44,5.42-1.31Z"/>
          <path class="cls-2" d="M148.16,67.39l-.08,0-5.42,1.31-22.48,5.46-1.14-16c-2.12-3-4.88,0-4.88,0l1,17.16-8.09,2-1.91-21.12c-3-5-5-1-5-1l.52,12.16a31.55,31.55,0,0,0-3-4.66L65.4,50.44l22.26-3.71-1-10L66.27,10l3.39-.25s4-2,0-5h-4s3-7,9-3l23,27s3,8,3,10l40,14A37.82,37.82,0,0,1,148.16,67.39Z"/>
          <path class="cls-1" d="M142.16,134.23s3,2,2,5L138,141.6l-.31.11-30.3,11.58A17,17,0,0,0,105.5,148l2.31-.87,28.09-10.55Z"/>
          <path class="cls-2" d="M120.18,74.18l22.48-5.46-4.09,33.44,0,.28-12.88,4.29-22,7c4.69-15,3.66-27.18,1.24-35.85l2.17-.52h0l8.09-2Z"/>
          <path class="cls-2" d="M100.68,67.39s0,0,0,0a49.58,49.58,0,0,1,4.21,10.47c2.42,8.67,3.45,20.83-1.24,35.85l-3,11,7,22s-11-12-20-5l-3.33-10.81L83,126.71l-3.38-11-19-4L55,135.5h0v0l-.29,1.21s-1-9-13-11l7-24-7-55-21-30s-4-12,7-12l2.78,3.36L34,12.33l17.71,21.4s5,7,4,13l9.74,3.71L97.66,62.73A31.55,31.55,0,0,1,100.68,67.39ZM88,102.44s6.36-9.75,5.2-17.21A38.09,38.09,0,0,0,84.48,66.5Zm-11.2-3.18a1.15,1.15,0,0,0,0-.19l-3.09-32a2,2,0,0,0-4,.2,1.09,1.09,0,0,0,0,.18l3.09,32a2,2,0,0,0,4-.19ZM62.65,96.17a1.34,1.34,0,0,0,0-.2l-3-30.86a2,2,0,0,0-4,.2,1.09,1.09,0,0,0,0,.18l3,30.86a2,2,0,0,0,4-.18Z"/>
          <path class="cls-1" d="M107.35,153.29c1.36,7.77-2.61,15-8.89,16.06S86,165.06,84.63,157.29s2.61-14.95,8.89-16.06c4.71-.83,9.37,2,12,6.77Z"/>
          <polygon class="cls-1" points="83.04 126.72 84.33 130.93 54.95 141.24 54.95 135.53 54.95 135.5 54.96 135.5 83.04 126.72"/>
          <path class="cls-1" d="M69.66,4.73c4,3,0,5,0,5L66.27,10,34,12.33,30.44,8.09,65.66,4.73Z"/>
          <path class="cls-1" d="M54,139.5c1.34,7.61-2,14.56-7.43,15.52S35.65,150.58,34.31,143s2-14.56,7.42-15.52S52.67,131.88,54,139.5Z"/>
        </g>
        <g>
          <path class="cls-3" d="M138.13,142l-.47-.29v0"/>
          <path class="cls-3" d="M30.44,8.09,65.66,4.73s3-7,9-3l23,27s3,8,3,10l40,14a37.82,37.82,0,0,1,7.5,14.66c2.37,9,2,21.36-9,34.84l6.56,19.69,4.94,14.81s-1.94,11.65-12.52,5.29"/>
          <path class="cls-3" d="M65.66,4.73h4c4,3,0,5,0,5L66.27,10,34,12.33"/>
          <polyline class="cls-3" points="135.9 136.59 125.66 106.73 103.66 113.73"/>
          <polyline class="cls-3" points="54.96 135.5 60.66 111.73 79.66 115.73 83.04 126.72"/>
          <path class="cls-3" d="M84.33,130.92l3.33,10.81c9-7,20,5,20,5l-7-22,3-11c4.69-15,3.66-27.18,1.24-35.85a49.58,49.58,0,0,0-4.21-10.47s0,0,0,0a31.55,31.55,0,0,0-3-4.66L65.4,50.44l-9.74-3.71c1-6-4-13-4-13L34,12.33,30.44,8.09,27.66,4.73c-11,0-7,12-7,12l21,30,7,55-7,24c12,2,13,11,13,11l.29-1.21"/>
          <polyline class="cls-3" points="65.4 50.45 87.66 46.73 86.66 36.73 66.27 9.98"/>
          <line class="cls-3" x1="107.07" y1="77.36" x2="104.9" y2="77.88"/>
          <line class="cls-3" x1="115.16" y1="75.39" x2="107.07" y2="77.35"/>
          <polyline class="cls-3" points="148.08 67.42 142.66 68.72 120.18 74.19"/>
          <path class="cls-3" d="M62.64,96l-3-30.86a2,2,0,0,0-4,.2,1.09,1.09,0,0,0,0,.18l3,30.86a2,2,0,0,0,4-.18A1.34,1.34,0,0,0,62.64,96Z"/>
          <path class="cls-3" d="M76.75,99.07l-3.09-32a2,2,0,0,0-4,.2,1.09,1.09,0,0,0,0,.18l3.09,32a2,2,0,0,0,4-.19A1.15,1.15,0,0,0,76.75,99.07Z"/>
          <path class="cls-3" d="M93.16,85.23A38.09,38.09,0,0,0,84.48,66.5L88,102.44S94.32,92.69,93.16,85.23Z"/>
          <path class="cls-3" d="M120.18,74.18l-1.14-16c-2.12-3-4.88,0-4.88,0l1,17.16Z"/>
          <path class="cls-3" d="M107.07,77.36h0l-1.91-21.12c-3-5-5-1-5-1l.52,12.16v0"/>
          <path class="cls-3" d="M41.73,127.44c-5.44,1-8.76,7.91-7.42,15.52S41.14,156,46.58,155s8.77-7.91,7.43-15.52S47.17,126.48,41.73,127.44Z"/>
          <path class="cls-3" d="M105.5,148c-2.61-4.76-7.27-7.6-12-6.77-6.28,1.11-10.25,8.3-8.89,16.06s7.56,13.17,13.83,12.06,10.25-8.29,8.89-16.06"/>
          <path class="cls-3" d="M138,141.6l.17.42h0c2.29,5.48,6.9,8.94,11.47,8.13,5.64-1,9.1-8.09,7.73-15.86-1.28-7.28-6.35-12.56-11.62-12.37"/>
          <path class="cls-3" d="M107.35,153.29l30.3-11.58.31-.11,6.2-2.37c1-3-2-5-2-5l-6.26,2.35-28.09,10.55-2.31.87"/>
          <line class="cls-3" x1="105.5" y1="148" x2="107.35" y2="153.29"/>
          <polygon class="cls-3" points="83.04 126.72 54.96 135.5 54.95 135.5 54.95 135.53 54.95 141.24 84.33 130.93 83.04 126.72"/>
          <polyline class="cls-3" points="125.66 106.73 138.54 102.44 138.57 102.17 142.66 68.72"/>
        </g>
      </g>
    </g>
  </g>
</svg>
