<?xml version="1.0" standalone="no"?>
<!DOCTYPE svg PUBLIC "-//W3C//DTD SVG 20010904//EN"
 "http://www.w3.org/TR/2001/REC-SVG-20010904/DTD/svg10.dtd">
<svg version="1.0" xmlns="http://www.w3.org/2000/svg"
 width="776.000000pt" height="776.000000pt" viewBox="0 0 776.000000 776.000000"
 preserveAspectRatio="xMidYMid meet">
<metadata>
Created by potrace 1.14, written by Peter Selinger 2001-2017
</metadata>
<g transform="translate(0.000000,776.000000) scale(0.100000,-0.100000)"
fill="#000000" stroke="none">
<path d="M1678 7646 c-53 -17 -99 -34 -102 -37 -4 -3 2 -28 13 -55 18 -46 52
-142 171 -489 28 -82 55 -159 60 -170 10 -24 24 -69 21 -73 -1 -1 5 -15 12
-30 8 -15 34 -85 57 -157 24 -71 47 -135 51 -140 4 -6 10 -22 13 -35 5 -28 52
-164 67 -195 5 -11 11 -29 14 -40 2 -11 16 -54 31 -95 54 -150 105 -295 109
-310 2 -8 20 -60 40 -115 20 -55 38 -107 40 -115 2 -8 20 -60 40 -115 20 -55
38 -108 40 -117 2 -9 8 -25 13 -35 5 -10 8 -26 7 -35 -2 -10 1 -18 6 -18 18 0
8 -19 -13 -26 -13 -4 -24 -6 -26 -5 -1 1 -10 -5 -18 -14 -9 -8 -22 -15 -30
-15 -8 0 -14 -4 -14 -10 0 -5 -6 -10 -14 -10 -8 0 -21 -6 -28 -12 -7 -7 -39
-30 -71 -51 -66 -43 -82 -56 -146 -114 -25 -24 -52 -41 -59 -38 -7 3 -10 0 -7
-6 4 -5 -8 -25 -27 -43 -18 -18 -51 -54 -73 -81 -22 -26 -46 -53 -52 -61 -7
-7 -13 -15 -13 -19 0 -4 -6 -13 -12 -20 -26 -29 -38 -47 -89 -135 -17 -30 -37
-58 -43 -62 -6 -4 -8 -8 -3 -8 4 0 -6 -27 -23 -60 -17 -33 -27 -60 -24 -60 4
0 0 -7 -7 -16 -7 -9 -14 -21 -15 -28 -1 -6 -14 -45 -28 -87 -14 -43 -28 -88
-30 -100 -3 -13 -5 -24 -6 -24 -1 0 -3 -9 -5 -20 -8 -55 -17 -100 -21 -104 -2
-2 -22 8 -44 23 -22 14 -42 26 -44 26 -6 0 -179 111 -186 119 -3 4 -25 19 -50
35 -65 42 -264 188 -272 201 -4 5 -8 6 -8 2 0 -4 -15 6 -33 22 -17 17 -35 31
-39 31 -4 0 -13 6 -20 13 -7 7 -42 34 -78 60 -36 26 -70 51 -75 55 -60 49
-278 181 -300 182 -3 0 -10 2 -17 4 -77 24 -147 7 -192 -46 -39 -45 -76 -145
-92 -248 -3 -19 -7 -46 -10 -60 -19 -114 -27 -688 -11 -835 18 -167 27 -229
49 -350 6 -33 12 -67 13 -75 2 -13 16 -84 20 -100 1 -3 5 -18 9 -35 4 -16 11
-43 16 -60 5 -16 11 -41 14 -55 6 -32 41 -147 55 -182 6 -16 7 -28 4 -28 -4 0
-2 -5 5 -12 7 -7 12 -20 12 -30 0 -10 4 -26 9 -36 12 -24 25 -56 56 -137 85
-222 230 -497 378 -720 249 -373 578 -715 942 -981 96 -70 233 -160 345 -225
81 -48 360 -189 360 -182 0 3 10 -1 23 -9 23 -15 193 -83 292 -118 213 -73
538 -150 741 -175 27 -3 65 -8 84 -11 126 -19 626 -26 765 -11 39 4 88 9 110
11 58 6 145 17 169 22 12 2 36 7 55 10 18 3 43 8 55 10 11 2 37 7 56 10 19 3
60 12 90 19 30 8 66 16 80 19 14 3 62 16 108 29 45 14 85 25 87 26 65 19 143
45 172 58 17 7 38 13 46 13 9 0 19 5 22 10 4 6 11 8 16 5 5 -4 9 -1 9 4 0 6
10 11 23 11 12 0 31 6 42 14 11 7 31 17 45 21 33 10 354 168 405 200 22 14 47
28 55 32 78 36 462 308 539 381 10 9 53 49 96 87 68 61 149 142 279 278 20 20
36 41 36 46 0 5 4 11 9 13 9 3 69 72 109 123 12 17 43 57 68 90 83 107 209
301 281 430 76 137 252 518 261 565 0 3 3 12 6 20 45 127 135 451 150 540 3
19 8 49 12 65 14 73 22 131 17 138 -2 4 -1 7 4 7 4 0 8 10 9 23 0 12 3 47 7
77 16 143 22 251 22 435 0 257 -12 358 -59 498 -69 205 -190 324 -378 374 -66
17 -260 22 -348 9 -81 -13 -154 -27 -209 -43 -29 -8 -59 -16 -65 -17 -6 -2
-31 -8 -56 -15 -25 -7 -52 -15 -60 -16 -19 -5 -194 -65 -285 -100 -84 -31 -99
-36 -102 -36 -2 0 -40 -16 -85 -35 -46 -20 -87 -37 -93 -38 -13 -4 -30 -11
-139 -58 -49 -21 -95 -38 -103 -38 -7 0 -13 -4 -13 -8 0 -5 -6 -9 -12 -9 -7 0
-40 -12 -73 -27 -33 -15 -69 -31 -80 -36 -11 -5 -81 -34 -155 -65 -137 -56
-148 -61 -210 -88 -19 -9 -60 -25 -90 -37 -30 -11 -70 -28 -88 -36 -18 -8 -42
-16 -52 -17 -11 -1 -20 -4 -20 -7 0 -6 -96 -44 -112 -45 -3 0 -10 -3 -14 -8
-4 -4 -14 -7 -21 -7 -8 0 -32 -9 -54 -19 -21 -11 -37 -15 -33 -10 3 5 0 9 -5
9 -8 0 -7 7 1 20 15 23 3 39 -15 20 -9 -10 -9 -11 1 -6 14 8 17 -10 3 -18 -5
-3 -16 5 -25 19 -19 29 -21 41 -3 27 16 -14 42 1 32 19 -6 9 -3 11 9 6 10 -4
21 -7 24 -7 4 0 0 -5 -8 -10 -9 -6 -10 -10 -3 -10 22 0 24 19 2 31 -16 8 -18
13 -9 19 7 5 2 8 -14 8 -14 0 -26 -5 -26 -10 0 -5 5 -6 11 -2 7 4 10 1 7 -7
-3 -8 -10 -15 -16 -15 -7 -1 -16 -2 -22 -3 -5 0 -9 -12 -8 -25 1 -14 6 -22 10
-20 4 3 8 0 8 -5 0 -6 -5 -11 -11 -11 -5 0 -7 -5 -4 -10 4 -6 14 -9 23 -8 9 2
17 -3 17 -9 0 -7 -4 -13 -10 -14 -5 0 -15 -5 -22 -10 -8 -7 -11 -5 -8 8 1 10
0 22 -3 28 -4 5 -7 21 -8 35 -4 39 -12 79 -20 91 -4 7 -1 10 7 7 8 -3 13 -11
11 -17 -1 -7 2 -10 8 -6 5 3 10 2 10 -4 0 -5 -6 -12 -12 -14 -10 -4 -10 -6 -1
-6 19 -1 26 18 13 35 -11 12 -7 14 26 9 37 -4 37 -4 16 11 -12 8 -20 20 -16
25 3 6 12 3 20 -8 7 -10 14 -14 14 -10 0 5 -9 21 -21 35 -16 21 -20 23 -17 8
1 -10 -2 -21 -7 -23 -12 -4 -14 85 -2 104 4 7 -1 14 -13 18 -11 3 -20 11 -20
16 0 12 17 12 25 -1 3 -6 11 -10 18 -10 6 0 1 7 -11 16 -12 8 -27 12 -33 8 -7
-4 -10 -1 -7 7 3 8 13 14 24 14 10 0 19 7 19 15 0 8 -6 14 -12 13 -7 -2 -13 4
-13 12 0 8 -5 15 -10 15 -7 0 -7 -6 -1 -18 12 -22 -3 -42 -30 -42 -10 0 -20
-4 -23 -9 -7 -11 22 -23 37 -14 7 4 8 0 4 -11 -10 -24 1 -40 18 -26 10 8 13 5
13 -14 0 -23 -2 -24 -23 -10 -18 12 -22 12 -22 0 0 -8 7 -12 16 -9 10 3 12 1
6 -4 -5 -4 -11 -15 -13 -23 -2 -11 1 -11 12 3 12 16 14 16 20 1 8 -20 8 -24
-1 -23 -19 3 -25 -2 -15 -14 8 -10 6 -13 -7 -13 -12 0 -17 6 -13 18 2 11 -1
18 -9 18 -11 0 -11 2 1 10 12 8 12 10 -2 15 -10 4 -14 14 -11 26 3 10 0 19 -6
19 -6 0 -8 7 -4 17 5 12 3 14 -8 8 -8 -4 -11 -5 -7 0 4 4 3 14 -3 22 -6 7 -8
13 -3 13 5 0 2 5 -6 10 -13 8 -12 10 3 10 9 0 17 -5 17 -11 0 -8 5 -8 15 1 8
7 15 9 15 4 0 -4 5 -3 11 3 8 8 8 16 0 30 -10 16 -11 15 -5 -7 6 -22 5 -23 -9
-12 -9 8 -21 11 -27 7 -15 -9 -40 13 -34 30 3 8 12 11 20 8 8 -3 11 -9 8 -14
-3 -5 -10 -6 -16 -3 -7 4 -8 2 -4 -5 6 -9 11 -9 22 0 8 6 14 8 14 3 0 -5 5 -1
11 8 6 11 16 15 27 11 16 -6 16 -6 0 10 -19 20 -29 22 -25 6 1 -6 -3 -13 -8
-15 -6 -2 -11 5 -11 16 0 11 3 20 7 20 4 0 9 6 12 14 4 9 -3 13 -21 12 -14 -1
-27 5 -29 12 -3 8 2 10 14 6 15 -5 15 -4 3 5 -8 5 -12 13 -8 16 3 3 13 -1 22
-10 9 -9 16 -11 16 -5 0 6 -7 13 -15 16 -8 4 -12 10 -9 16 3 5 12 4 22 -4 13
-11 14 -11 7 2 -5 8 -10 21 -10 27 0 7 -2 12 -5 11 -3 -2 -16 5 -29 14 -13 9
-31 14 -40 10 -13 -5 -14 -3 -4 9 10 12 8 17 -7 27 -11 7 -17 18 -14 27 3 8
10 12 16 9 5 -3 4 3 -3 15 -15 22 -31 9 -22 -18 3 -12 0 -11 -11 3 -14 18 -18
18 -43 5 -21 -11 -27 -11 -31 -1 -2 7 -10 19 -19 27 -8 8 -10 15 -4 15 18 0
26 -4 26 -15 0 -23 19 -8 20 15 0 14 4 31 9 39 6 9 5 12 -1 8 -6 -4 -13 0 -17
8 -3 8 3 19 12 24 15 9 14 10 -5 8 -12 0 -19 -5 -17 -9 6 -10 -10 -11 -19 -1
-4 3 -2 12 4 20 9 9 8 13 0 13 -6 0 -11 -5 -11 -11 0 -5 -4 -8 -9 -5 -5 4 -11
0 -14 -6 -2 -7 -8 -10 -12 -6 -4 4 8 21 26 37 18 17 30 31 25 31 -4 0 2 8 14
18 18 14 19 19 7 19 -9 0 -14 -4 -11 -8 2 -4 -5 -11 -17 -14 -15 -5 -18 -9 -9
-15 9 -5 9 -9 1 -14 -6 -4 -18 0 -27 8 -22 22 -31 20 -11 -2 10 -10 14 -22 10
-25 -10 -11 -33 -8 -33 4 0 5 6 7 13 4 6 -4 2 2 -10 13 -13 11 -23 23 -23 26
0 3 -9 15 -20 26 -15 15 -20 16 -20 6 0 -8 -6 -17 -12 -20 -7 -3 -2 -3 11 0
16 4 21 3 17 -5 -4 -6 0 -14 9 -17 13 -6 14 -9 3 -16 -9 -7 -7 -8 7 -4 16 5
21 1 21 -14 0 -11 -4 -20 -7 -20 -14 0 -39 32 -34 41 4 5 0 9 -7 9 -43 0 -40
40 6 84 12 12 14 15 5 8 -10 -8 -24 -11 -31 -6 -7 4 -10 4 -6 -1 9 -10 -9 -45
-24 -45 -7 0 -7 4 1 14 6 8 10 20 9 27 -2 7 6 15 17 17 29 6 36 15 24 32 -9
13 -10 12 -5 -2 3 -12 0 -18 -10 -18 -8 0 -26 -7 -40 -16 -29 -19 -37 -15 -36
20 0 19 -6 26 -22 26 -44 0 -56 4 -61 20 -3 9 -16 22 -29 28 -21 10 -113 75
-126 90 -3 3 12 -4 32 -15 36 -21 37 -21 54 -2 9 10 12 19 7 19 -6 0 -14 -8
-18 -17 -6 -16 -8 -16 -18 -3 -13 16 -32 23 -59 22 -10 0 -18 3 -18 9 0 5 6 9
14 9 20 0 29 17 15 26 -8 5 -9 3 -4 -6 5 -8 3 -11 -6 -8 -8 3 -13 11 -12 17 2
6 -2 11 -8 11 -6 0 -8 -8 -4 -19 3 -11 1 -22 -5 -26 -5 -3 -10 2 -10 11 0 10
-3 14 -6 11 -11 -10 -45 13 -38 25 4 7 3 8 -5 4 -14 -9 -51 2 -51 16 0 6 7 5
17 -3 12 -10 15 -11 9 -1 -6 10 -1 11 21 7 26 -5 26 -5 5 5 -13 5 -28 8 -33 4
-12 -7 -11 3 0 25 8 14 5 17 -15 17 -13 0 -24 -4 -24 -9 0 -5 7 -7 15 -3 18 6
19 1 5 -24 -10 -18 -11 -18 -52 4 -24 13 -47 23 -53 24 -5 0 -11 6 -13 14 -2
9 0 8 8 -2 8 -10 10 -11 8 -2 -2 8 -8 13 -13 13 -22 0 -40 56 -25 74 6 8 5 12
-3 12 -9 0 -13 -14 -13 -38 0 -21 3 -36 7 -33 4 2 10 -3 13 -12 5 -12 2 -15
-11 -9 -10 4 -38 14 -63 24 -25 9 -48 20 -51 24 -3 5 -9 8 -13 7 -21 -5 -86
14 -86 25 0 8 -4 16 -9 19 -5 4 -7 -4 -4 -16 5 -23 5 -23 -11 -3 -10 11 -15
14 -11 8 3 -7 1 -13 -4 -13 -6 0 -11 3 -11 8 0 4 -10 8 -22 8 -91 6 -98 9 -92
29 4 16 3 17 -5 5 -12 -18 -31 -20 -50 -6 -11 8 -13 8 -7 -1 5 -9 0 -12 -16
-10 -13 1 -26 9 -30 17 -5 12 -7 11 -7 -3 -1 -11 -5 -15 -13 -11 -6 4 -59 6
-117 5 -158 -3 -195 -5 -201 -13 -3 -3 -25 -7 -50 -9 -25 -1 -49 -5 -55 -8
-32 -17 -53 -10 -65 21 -33 86 -37 98 -33 98 3 0 0 7 -7 15 -7 8 -9 15 -5 15
4 0 3 6 -2 13 -6 6 -16 30 -22 52 -7 22 -16 49 -21 60 -8 18 -34 92 -186 540
-24 72 -48 139 -53 150 -16 37 -63 180 -68 208 -3 15 -9 27 -12 27 -4 0 -8 6
-8 13 -1 12 -38 122 -193 567 -45 129 -85 246 -87 260 -3 14 -9 30 -13 35 -4
6 -18 42 -30 80 -30 91 -52 122 -98 135 -51 14 -64 12 -174 -24z m2519 -2661
c0 -10 -5 -11 -19 -4 -10 5 -18 11 -18 12 0 2 8 3 18 4 10 1 19 -5 19 -12z
m-432 -53 c-3 -3 -11 0 -18 7 -9 10 -8 11 6 5 10 -3 15 -9 12 -12z m485 8 c0
-5 -7 -10 -16 -10 -8 0 -12 5 -9 10 3 6 10 10 16 10 5 0 9 -4 9 -10z m-364
-92 c4 -7 -9 1 -29 16 -20 16 -37 30 -37 33 0 7 58 -36 66 -49z m96 -79 c20
-20 40 -34 44 -30 4 3 4 1 0 -6 -3 -6 2 -16 11 -22 10 -6 13 -11 6 -11 -7 0
-22 13 -34 30 -12 16 -27 26 -32 23 -6 -3 -7 -1 -4 4 4 6 -9 21 -28 34 -19 13
-35 28 -35 33 0 11 24 -8 72 -55z m386 39 c-2 -7 6 -13 17 -13 32 0 56 -20 59
-48 2 -17 -1 -24 -8 -20 -6 4 -20 7 -31 8 -14 0 -19 6 -17 19 2 12 -1 16 -9
10 -8 -4 -10 -3 -5 4 4 7 1 12 -9 12 -9 0 -13 5 -10 10 3 6 1 10 -5 10 -6 0
-8 5 -5 10 9 14 25 12 23 -2z m-286 -141 c13 -13 29 -35 37 -50 8 -14 18 -24
22 -21 5 3 6 -3 2 -12 -5 -13 -3 -15 7 -9 8 5 11 4 7 -2 -4 -6 5 -18 18 -27
14 -9 23 -21 20 -26 -3 -5 -1 -11 5 -15 5 -3 14 -14 20 -25 7 -14 6 -18 -5
-16 -8 1 -18 6 -22 11 -4 4 -2 5 5 1 16 -10 15 2 -2 19 -7 8 -17 11 -22 7 -5
-4 -3 0 3 8 10 13 8 18 -7 28 -11 7 -31 30 -45 51 -13 22 -38 54 -54 70 -17
17 -26 31 -21 31 5 0 19 -10 32 -23z m428 -14 c14 -14 25 -33 25 -42 0 -10 9
-16 22 -17 13 -1 29 -6 36 -13 8 -6 17 -8 20 -4 4 3 7 2 7 -4 0 -17 -36 -44
-52 -38 -20 8 -39 -17 -28 -35 9 -13 10 -13 11 0 1 8 1 18 0 23 -2 11 17 9 24
-3 3 -5 1 -10 -6 -10 -8 0 -6 -7 5 -19 10 -11 25 -17 34 -14 10 4 13 2 8 -6
-4 -6 -16 -9 -26 -6 -10 3 -21 1 -25 -5 -4 -6 -3 -10 2 -9 22 4 43 -2 43 -12
0 -6 -6 -9 -14 -6 -7 3 -19 1 -25 -4 -6 -5 -9 -6 -6 -3 3 4 0 13 -6 21 -9 10
-8 17 2 30 12 15 12 16 -3 10 -12 -4 -21 1 -29 15 -10 18 -8 24 9 39 12 9 18
19 15 23 -4 3 -1 6 5 6 7 0 12 -4 12 -10 0 -5 5 -10 10 -10 17 0 11 17 -7 25
-11 4 -22 1 -27 -9 -9 -13 -12 -12 -24 2 -11 15 -12 14 -2 -5 7 -16 7 -23 0
-23 -5 0 -10 7 -10 15 0 8 -6 15 -12 15 -7 0 -5 5 5 11 9 5 23 7 30 4 6 -4 4
0 -6 8 -11 9 -14 17 -7 20 6 3 5 4 -2 3 -7 -2 -12 -9 -10 -15 1 -6 -5 -11 -14
-11 -8 0 -12 4 -9 10 10 17 14 51 5 45 -4 -3 -15 -2 -24 1 -13 5 -14 9 -5 20
16 19 20 18 49 -13z m-20 -28 c0 -12 -19 -12 -23 0 -4 9 -1 12 9 8 7 -3 14 -7
14 -8z m-246 -192 c3 -10 7 -22 8 -28 1 -5 10 -19 20 -30 12 -12 15 -21 8 -23
-7 -3 -4 -9 6 -16 11 -8 14 -18 9 -26 -6 -10 -11 -7 -18 11 -6 13 -9 30 -8 38
1 8 -2 10 -10 5 -7 -4 -10 -3 -6 3 4 6 0 16 -8 23 -7 6 -11 18 -8 26 3 8 2 14
-3 13 -18 -3 -25 1 -19 11 10 15 23 12 29 -7z m456 -63 c0 -5 -5 -10 -11 -10
-5 0 -7 5 -4 10 3 6 8 10 11 10 2 0 4 -4 4 -10z m-386 -101 c-2 -4 3 -12 10
-18 8 -7 13 -23 10 -37 -3 -18 -1 -23 7 -18 7 4 9 3 5 -4 -3 -6 -1 -14 5 -17
5 -4 8 -13 5 -21 -3 -7 -1 -16 4 -19 5 -3 6 -13 3 -22 -5 -12 -3 -14 8 -8 8 4
11 5 7 0 -4 -4 -3 -16 2 -26 7 -11 7 -20 0 -24 -6 -4 -5 -13 3 -25 9 -16 9
-23 -6 -37 -16 -16 -17 -16 -17 0 0 11 5 16 13 12 6 -4 3 1 -7 9 -11 9 -14 16
-7 16 7 0 9 5 4 13 -8 12 -11 26 -17 62 -2 11 -5 21 -6 23 -1 1 -4 7 -5 12 -1
6 -4 13 -5 18 -1 4 -2 11 -1 16 1 4 -4 14 -10 22 -9 11 -8 14 2 14 10 1 8 5
-5 15 -10 7 -15 18 -12 23 3 6 1 12 -6 14 -7 3 -9 12 -4 23 6 16 9 17 16 5 5
-8 7 -17 4 -21z m376 -100 c0 -4 -4 -11 -10 -14 -5 -3 -10 -2 -10 4 0 6 -8 8
-17 5 -13 -4 -14 -3 -5 3 16 12 42 13 42 2z m40 -85 c0 -8 -19 -13 -24 -6 -3
5 1 9 9 9 8 0 15 -2 15 -3z m-335 -141 c-1 -27 4 -52 10 -56 6 -5 2 -6 -9 -3
-13 5 -17 2 -12 -9 3 -8 1 -15 -5 -15 -6 0 -8 13 -5 30 2 19 0 30 -7 30 -8 0
-8 3 -2 8 15 11 17 32 3 32 -6 0 -3 7 8 15 10 8 19 15 19 15 0 0 0 -21 0 -47z"/>
<path d="M4397 4780 c10 -11 10 -17 0 -28 -10 -13 -9 -14 9 -4 12 6 24 8 28 5
3 -3 6 -4 6 -1 0 3 -12 14 -27 23 -16 10 -22 12 -16 5z"/>
<path d="M4335 4160 c3 -5 8 -10 11 -10 2 0 4 5 4 10 0 6 -5 10 -11 10 -5 0
-7 -4 -4 -10z"/>
<path d="M4359 4081 c6 -10 7 -22 3 -26 -4 -5 -1 -5 6 -1 9 5 9 12 2 27 -6 10
-13 19 -16 19 -2 0 0 -8 5 -19z"/>
<path d="M3057 5475 c-4 -8 -3 -16 1 -19 4 -3 9 4 9 15 2 23 -3 25 -10 4z"/>
<path d="M2719 5453 c-13 -16 -12 -17 4 -4 16 13 21 21 13 21 -2 0 -10 -8 -17
-17z"/>
<path d="M3219 5468 c-5 -16 -4 -46 2 -42 4 2 7 13 6 24 -1 17 -5 26 -8 18z"/>
<path d="M3400 5460 c-12 -7 -10 -9 7 -7 12 0 19 5 17 9 -6 10 -6 10 -24 -2z"/>
<path d="M3455 5460 c-3 -5 -1 -10 4 -10 6 0 11 5 11 10 0 6 -2 10 -4 10 -3 0
-8 -4 -11 -10z"/>
<path d="M3095 5439 c-3 -4 2 -6 10 -5 21 3 28 13 10 13 -9 0 -18 -4 -20 -8z"/>
<path d="M3246 5442 c-3 -5 1 -9 9 -9 8 0 12 4 9 9 -3 4 -7 8 -9 8 -2 0 -6 -4
-9 -8z"/>
<path d="M2830 5420 c0 -5 5 -10 11 -10 5 0 7 5 4 10 -3 6 -8 10 -11 10 -2 0
-4 -4 -4 -10z"/>
<path d="M3365 5420 c-3 -6 1 -7 9 -4 18 7 21 14 7 14 -6 0 -13 -4 -16 -10z"/>
<path d="M3548 5368 c2 -10 6 -18 7 -18 1 0 5 8 7 18 3 11 0 19 -7 19 -7 0
-10 -8 -7 -19z"/>
<path d="M3755 5369 c-4 -6 -5 -12 -2 -15 2 -3 7 2 10 11 7 17 1 20 -8 4z"/>
<path d="M3605 5359 c-4 -6 -4 -13 -1 -16 3 -4 6 -1 6 6 0 7 5 9 12 5 7 -4 8
-3 4 4 -9 15 -13 15 -21 1z"/>
<path d="M3899 5348 c-5 -16 -4 -46 2 -42 4 2 7 13 6 24 -1 17 -5 26 -8 18z"/>
<path d="M3630 5330 c8 -5 20 -10 25 -10 6 0 3 5 -5 10 -8 5 -19 10 -25 10 -5
0 -3 -5 5 -10z"/>
<path d="M3760 5326 c7 -7 13 -7 20 0 6 6 3 10 -10 10 -13 0 -16 -4 -10 -10z"/>
<path d="M3790 5310 c0 -5 5 -10 11 -10 5 0 7 5 4 10 -3 6 -8 10 -11 10 -2 0
-4 -4 -4 -10z"/>
<path d="M3755 5300 c-10 -16 4 -30 22 -23 12 5 14 3 8 -7 -5 -9 -4 -11 4 -6
16 10 2 29 -16 22 -11 -4 -13 -2 -9 9 6 17 0 20 -9 5z"/>
<path d="M3914 5265 c0 -13 3 -22 7 -19 8 4 6 30 -2 38 -3 3 -5 -5 -5 -19z"/>
<path d="M3973 5275 c0 -8 4 -12 9 -9 5 3 6 10 3 15 -9 13 -12 11 -12 -6z"/>
<path d="M4053 5255 c0 -8 4 -12 9 -9 5 3 6 10 3 15 -9 13 -12 11 -12 -6z"/>
<path d="M3995 5250 c-4 -6 -11 -8 -16 -5 -5 4 -9 2 -9 -4 0 -5 8 -9 18 -8 10
0 19 7 19 14 0 16 -4 16 -12 3z"/>
<path d="M3937 5236 c-4 -10 -1 -13 8 -9 8 3 12 9 9 14 -7 12 -11 11 -17 -5z"/>
<path d="M3907 5216 c-3 -8 -2 -18 3 -21 13 -8 20 9 11 24 -6 10 -10 9 -14 -3z"/>
<path d="M4013 5213 c-15 -5 -17 -23 -4 -23 5 0 11 7 15 15 3 8 4 15 3 14 -1
0 -8 -3 -14 -6z"/>
<path d="M4040 5195 c-7 -9 -11 -17 -9 -20 3 -2 10 5 17 15 14 24 10 26 -8 5z"/>
<path d="M4175 5180 c-3 -5 -1 -10 4 -10 6 0 11 5 11 10 0 6 -2 10 -4 10 -3 0
-8 -4 -11 -10z"/>
<path d="M3998 5163 c7 -3 16 -2 19 1 4 3 -2 6 -13 5 -11 0 -14 -3 -6 -6z"/>
<path d="M4120 5165 c0 -2 6 -8 13 -14 10 -8 14 -7 14 2 0 8 -6 14 -14 14 -7
0 -13 -1 -13 -2z"/>
<path d="M4253 5145 c0 -8 4 -12 9 -9 5 3 6 10 3 15 -9 13 -12 11 -12 -6z"/>
<path d="M4100 5146 c0 -2 7 -7 16 -10 8 -3 12 -2 9 4 -6 10 -25 14 -25 6z"/>
<path d="M4210 5140 c0 -5 5 -10 11 -10 5 0 7 5 4 10 -3 6 -8 10 -11 10 -2 0
-4 -4 -4 -10z"/>
<path d="M4056 5114 c-9 -6 -13 -14 -9 -17 3 -4 12 1 20 11 13 15 13 15 8 -8
l-6 -25 14 23 c7 12 16 19 20 16 4 -4 7 -2 7 4 0 14 -33 12 -54 -4z"/>
<path d="M4144 5115 c-4 -8 -9 -13 -14 -10 -4 2 -16 -2 -26 -10 -26 -19 -5
-43 23 -26 16 11 16 11 -4 6 -14 -4 -23 -2 -23 4 0 10 14 15 33 12 4 -1 10 6
13 14 3 8 10 12 15 9 5 -3 9 0 9 5 0 16 -20 13 -26 -4z"/>
<path d="M4293 5095 c0 -8 4 -12 9 -9 5 3 6 10 3 15 -9 13 -12 11 -12 -6z"/>
<path d="M4170 5091 c0 -7 -5 -9 -12 -5 -7 4 -8 3 -4 -5 4 -6 0 -14 -8 -17
-23 -9 -4 -39 26 -41 18 -2 20 0 8 8 -11 8 -12 12 -2 16 6 2 12 10 12 16 -1 7
-10 1 -20 -12 -11 -13 -20 -17 -20 -10 0 7 7 21 17 31 9 10 13 21 10 25 -4 3
-7 1 -7 -6z"/>
<path d="M4210 5080 c0 -5 5 -10 10 -10 6 0 10 5 10 10 0 6 -4 10 -10 10 -5 0
-10 -4 -10 -10z"/>
<path d="M4201 5049 c-1 -22 20 -39 44 -35 13 2 21 11 22 27 2 21 1 21 -5 4
-4 -11 -15 -21 -26 -23 -12 -2 -16 1 -10 9 4 7 3 10 -4 5 -6 -3 -13 2 -15 11
-4 15 -5 15 -6 2z"/>
<path d="M4291 5034 c0 -11 3 -14 6 -6 3 7 2 16 -1 19 -3 4 -6 -2 -5 -13z"/>
<path d="M4320 5020 c-9 -6 -10 -10 -3 -10 6 0 15 5 18 10 8 12 4 12 -15 0z"/>
<path d="M4356 5007 c3 -10 9 -15 12 -12 3 3 0 11 -7 18 -10 9 -11 8 -5 -6z"/>
<path d="M4225 4989 c-4 -6 -4 -13 -1 -16 3 -4 6 -1 6 6 0 7 5 9 10 6 6 -3 10
-1 10 4 0 14 -17 14 -25 0z"/>
<path d="M4320 4996 c0 -2 7 -7 16 -10 8 -3 12 -2 9 4 -6 10 -25 14 -25 6z"/>
<path d="M4339 4963 c-1 -5 -1 -11 0 -15 0 -5 -6 -8 -14 -8 -8 0 -15 -5 -15
-10 0 -17 33 5 36 24 1 9 0 16 -2 16 -2 0 -5 -3 -5 -7z"/>
<path d="M4365 4930 c-16 -7 -17 -9 -3 -9 9 -1 20 4 23 9 7 11 7 11 -20 0z"/>
<path d="M4344 4906 c10 -9 22 -13 27 -11 4 3 10 0 12 -5 4 -7 5 -6 4 1 -2 6
-7 11 -12 11 -6 0 -19 4 -30 10 -19 9 -19 9 -1 -6z"/>
<path d="M4519 4873 c-13 -16 -12 -17 4 -4 9 7 17 15 17 17 0 8 -8 3 -21 -13z"/>
<path d="M4450 4851 c0 -7 -4 -9 -10 -6 -6 4 -7 -1 -3 -11 6 -15 7 -15 15 1 6
9 7 19 4 22 -3 4 -6 1 -6 -6z"/>
<path d="M4519 4848 c-4 -10 -4 -66 1 -62 5 6 9 64 3 64 -2 0 -3 -1 -4 -2z"/>
<path d="M4595 4841 c-3 -5 -2 -12 3 -15 5 -3 9 1 9 9 0 17 -3 19 -12 6z"/>
<path d="M4476 4795 c-16 -12 -17 -15 -4 -15 9 0 18 7 22 15 7 18 6 18 -18 0z"/>
<path d="M4530 4765 c-9 -11 -9 -15 -1 -15 7 0 9 -5 5 -12 -4 -7 -3 -10 1 -5
8 6 16 47 10 47 -2 0 -8 -7 -15 -15z"/>
<path d="M4490 4760 c0 -5 5 -10 10 -10 6 0 10 5 10 10 0 6 -4 10 -10 10 -5 0
-10 -4 -10 -10z"/>
<path d="M4473 4725 c0 -14 2 -25 6 -25 10 0 11 39 2 45 -5 2 -8 -7 -8 -20z"/>
<path d="M4506 4725 c-9 -26 -7 -32 5 -12 6 10 9 21 6 23 -2 3 -7 -2 -11 -11z"/>
<path d="M4557 4734 c-3 -3 -3 -13 0 -22 5 -11 3 -13 -8 -7 -8 5 -11 4 -6 0 4
-5 14 -10 22 -11 11 -2 12 2 5 16 -5 9 -6 20 -3 24 3 3 4 6 1 6 -2 0 -7 -3
-11 -6z"/>
<path d="M4615 4690 c-4 -6 -10 -8 -14 -6 -4 3 -13 1 -20 -4 -9 -5 -3 -7 16
-7 17 1 30 7 30 14 0 16 -4 16 -12 3z"/>
<path d="M4540 4656 c0 -2 7 -6 15 -10 8 -3 15 -1 15 4 0 6 -7 10 -15 10 -8 0
-15 -2 -15 -4z"/>
<path d="M4590 4653 c0 -1 8 -7 18 -12 13 -7 19 -6 19 2 0 7 -9 13 -19 13 -10
0 -18 -1 -18 -3z"/>
<path d="M4659 4633 c-13 -16 -12 -17 4 -4 9 7 17 15 17 17 0 8 -8 3 -21 -13z"/>
<path d="M4575 4631 c-9 -16 35 -35 49 -21 8 8 6 9 -8 4 -13 -5 -17 -4 -12 4
5 8 1 10 -10 5 -12 -4 -15 -3 -10 5 4 7 5 12 2 12 -3 0 -7 -4 -11 -9z"/>
<path d="M4690 4619 c0 -5 5 -7 10 -4 6 3 10 8 10 11 0 2 -4 4 -10 4 -5 0 -10
-5 -10 -11z"/>
<path d="M4653 4593 c0 -9 4 -10 14 -2 7 6 13 12 13 14 0 1 -6 2 -13 2 -8 0
-14 -6 -14 -14z"/>
<path d="M4715 4580 c-3 -5 -1 -10 4 -10 6 0 11 5 11 10 0 6 -2 10 -4 10 -3 0
-8 -4 -11 -10z"/>
<path d="M4646 4523 c-6 -14 -5 -15 5 -6 7 7 10 15 7 18 -3 3 -9 -2 -12 -12z"/>
<path d="M4654 4495 c-3 -8 -4 -20 -1 -27 3 -7 6 -3 6 10 1 15 5 21 13 16 7
-4 8 -3 4 4 -10 16 -15 15 -22 -3z"/>
<path d="M4707 4499 c7 -7 15 -10 18 -7 3 3 -2 9 -12 12 -14 6 -15 5 -6 -5z"/>
<path d="M4673 4463 c4 -6 2 -13 -5 -15 -8 -3 -6 -6 4 -10 17 -7 19 15 3 29
-4 4 -5 3 -2 -4z"/>
<path d="M4696 4421 c-3 -5 2 -15 12 -22 16 -13 16 -13 2 5 -14 18 -13 19 8
14 12 -4 20 -2 16 3 -7 12 -31 12 -38 0z"/>
<path d="M4754 4401 c0 -16 5 -28 13 -28 9 0 10 4 2 13 -6 7 -8 18 -5 23 4 5
3 12 -2 15 -5 3 -8 -8 -8 -23z"/>
<path d="M4720 4355 c-7 -9 -11 -17 -9 -20 3 -2 10 5 17 15 14 24 10 26 -8 5z"/>
<path d="M4735 4339 c-4 -6 -5 -12 -2 -15 2 -3 7 2 10 11 7 17 1 20 -8 4z"/>
<path d="M4810 4340 c0 -5 5 -10 11 -10 5 0 7 5 4 10 -3 6 -8 10 -11 10 -2 0
-4 -4 -4 -10z"/>
<path d="M4875 4340 c3 -5 8 -10 11 -10 2 0 4 5 4 10 0 6 -5 10 -11 10 -5 0
-7 -4 -4 -10z"/>
<path d="M4776 4327 c3 -10 9 -15 12 -12 3 3 0 11 -7 18 -10 9 -11 8 -5 -6z"/>
<path d="M4750 4321 c0 -6 4 -13 10 -16 6 -3 7 1 4 9 -7 18 -14 21 -14 7z"/>
<path d="M4725 4299 c-6 -8 -4 -10 5 -4 10 6 12 4 6 -11 -6 -15 -5 -17 5 -6 9
9 10 15 2 23 -8 8 -13 7 -18 -2z"/>
<path d="M4835 4301 c-3 -5 -2 -12 3 -15 5 -3 9 1 9 9 0 17 -3 19 -12 6z"/>
<path d="M4756 4275 c-3 -8 -1 -15 4 -15 6 0 10 7 10 15 0 8 -2 15 -4 15 -2 0
-6 -7 -10 -15z"/>
<path d="M4713 4259 c1 -13 7 -30 13 -36 19 -19 29 -16 13 4 -12 15 -12 16 6
9 17 -6 18 -5 5 6 -8 7 -20 19 -27 27 -10 11 -12 9 -10 -10z"/>
<path d="M4770 4238 c0 -11 12 -10 30 2 12 7 10 9 -8 7 -12 0 -22 -5 -22 -9z"/>
<path d="M4756 4203 c-4 -9 -4 -14 0 -10 4 4 13 -1 21 -11 12 -15 13 -14 2 8
-16 33 -16 33 -23 13z"/>
<path d="M4761 4154 c0 -11 3 -14 6 -6 3 7 2 16 -1 19 -3 4 -6 -2 -5 -13z"/>
<path d="M4790 4149 c0 -5 5 -7 10 -4 6 3 10 8 10 11 0 2 -4 4 -10 4 -5 0 -10
-5 -10 -11z"/>
<path d="M4810 4130 c-9 -6 -10 -10 -3 -10 6 0 15 5 18 10 8 12 4 12 -15 0z"/>
<path d="M4770 4120 c0 -5 5 -10 10 -10 6 0 10 5 10 10 0 6 -4 10 -10 10 -5 0
-10 -4 -10 -10z"/>
<path d="M4795 4099 c-4 -6 -5 -12 -2 -15 2 -3 7 2 10 11 7 17 1 20 -8 4z"/>
<path d="M4810 4080 c0 -5 5 -10 10 -10 6 0 10 5 10 10 0 6 -4 10 -10 10 -5 0
-10 -4 -10 -10z"/>
<path d="M4846 4082 c-3 -5 1 -9 9 -9 8 0 12 4 9 9 -3 4 -7 8 -9 8 -2 0 -6 -4
-9 -8z"/>
<path d="M4766 4038 l-16 -33 20 24 c11 13 20 27 20 32 0 17 -9 9 -24 -23z"/>
</g>
</svg>
