<svg xmlns="http://www.w3.org/2000/svg" width="150" height="150" viewBox="0 0 335 335">
  <defs>
    <style>
      .cls-1 {
        fill: #fff;
      }
    </style>
  </defs>
  <g id="Camada_2" data-name="Camada 2">
    <g id="logo">
        <path class="cls-1" d="M9.25,147.8a35.39,35.39,0,0,0,.82,48.58l2.24,2.34A164.18,164.18,0,0,1,8.5,163.5C8.5,158.2,8.76,153,9.25,147.8Z"/>
        <path class="cls-1" d="M328,100a36.25,36.25,0,0,0-17.91-31,39.83,39.83,0,0,0-7.16-3.37A163.22,163.22,0,0,1,326.52,110,34.79,34.79,0,0,0,328,100Z"/>
        <path class="cls-1" d="M130.27,321.62h0a39.64,39.64,0,0,0,50.39,5.15q-4.31.23-8.66.23A164,164,0,0,1,130.27,321.62Z"/>
        <path class="cls-1" d="M130.27,321.62l-118-122.9A163.74,163.74,0,0,0,130.27,321.62Z"/>
        <path class="cls-1" d="M335.5,163.5a163.21,163.21,0,0,0-9-53.52,35.45,35.45,0,0,1-4.43,9.45L193.31,314.55a37,37,0,0,1-9.39,9.76,38.12,38.12,0,0,1-3.26,2.46A163.51,163.51,0,0,0,335.5,163.5Z"/>
        <path class="cls-1" d="M12.43,144.66a39.62,39.62,0,0,1,54.18,2.25l86.94,90.58L257.22,80.4c9.84-14.91,29.07-20.72,45.71-14.84A163.51,163.51,0,0,0,9.25,147.8,37.76,37.76,0,0,1,12.43,144.66Z"/>
    </g>
  </g>
</svg>
