<svg xmlns="http://www.w3.org/2000/svg" width="81.93" height="109.2" viewBox="0 0 81.93 109.2">
  <defs>
    <style>
      .cls-1 {
        fill: none;
        stroke: #fff;
        stroke-miterlimit: 10;
        stroke-width: 0.5px;
      }

      .cls-2 {
        fill: #fff;
      }
    </style>
  </defs>
  <g id="Camada_2" data-name="Camada 2">
    <g id="Camada_1-2" data-name="Camada 1">
      <g id="pizza">
        <path id="slice" class="cls-1" d="M9.62,88.27s-9.34-30.5,2.66-37.5,3.1-50,3.1-50,45.9,46,42.9,61,8.22,26.5,8.22,26.5S40,115.77,9.62,88.27Z"/>
        <path id="border" class="cls-1" d="M9.62,88.27l-6.34-5.5-3,11.5s1.1,5.5,16.56,8,27.54,10.5,36,4.5,30.14-10,28.8-18.5-15.12,0-15.12,0S40,115.77,9.62,88.27Z"/>
        <g id="recheio">
          <circle id="calabresa" class="cls-1" cx="47.78" cy="80.27" r="4.5"/>
          <path id="queijo" class="cls-2" d="M43.28,44.77a7,7,0,0,0-7,7c0,3.87,3.63,5.5,7.5,5.5s6.5-1.63,6.5-5.5A7,7,0,0,0,43.28,44.77Zm-3,11a1,1,0,1,1,1-1A1,1,0,0,1,40.28,55.77Zm1-6a1,1,0,1,1,1-1A1,1,0,0,1,41.28,49.77Zm5,4a1,1,0,1,1,1-1A1,1,0,0,1,46.28,53.77Z"/>
          <path id="queijo-2" data-name="queijo" class="cls-2" d="M23.78,62.27c-3.87,0-10.5,4.63-10.5,8.5s3.63,5.5,7.5,5.5,4-1.13,4-5S27.64,62.27,23.78,62.27Zm-6.5,12.5a1,1,0,1,1,1-1A1,1,0,0,1,17.28,74.77Zm1-6a1,1,0,1,1,1-1A1,1,0,0,1,18.28,68.77Zm5,4a1,1,0,1,1,1-1A1,1,0,0,1,23.28,72.77Z"/>
          <circle id="calabresa-2" data-name="calabresa" class="cls-1" cx="29.28" cy="28.77" r="4"/>
        </g>
      </g>
    </g>
  </g>
</svg>
