<svg xmlns="http://www.w3.org/2000/svg" width="169.76" height="170.59" viewBox="0 0 169.76 170.59">
  <defs>
    <style>
      .cls-1 {
        fill: #303030;
      }

      .cls-2 {
        fill: #717171;
      }

      .cls-3 {
        fill: #383838;
      }

      .cls-4 {
        fill: #727272;
      }

      .cls-5 {
        fill: #151515;
      }

      .cls-6 {
        fill: #030303;
      }

      .cls-7 {
        fill: #6d6d6d;
      }

      .cls-8 {
        fill: #565656;
      }

      .cls-9 {
        fill: #7a7a7a;
      }

      .cls-10 {
        fill: #080808;
      }

      .cls-11 {
        fill: #474747;
      }

      .cls-12 {
        fill: #424242;
      }

      .cls-13 {
        fill: #5b5b5b;
      }

      .cls-14 {
        fill: #070707;
      }

      .cls-15 {
        fill: #a2a2a2;
      }

      .cls-16 {
        fill: #a1a1a1;
      }

      .cls-17 {
        fill: #989898;
      }

      .cls-18 {
        fill: #626262;
      }

      .cls-19 {
        fill: #222;
      }

      .cls-20 {
        fill: #2d2d2d;
      }

      .cls-21 {
        fill: #575757;
      }

      .cls-22 {
        fill: #242424;
      }

      .cls-23, .cls-24, .cls-25, .cls-26 {
        fill: none;
        stroke: #000;
      }

      .cls-23, .cls-25, .cls-26 {
        stroke-miterlimit: 10;
      }

      .cls-23, .cls-24 {
        stroke-width: 4px;
      }

      .cls-24 {
        stroke-linecap: round;
        stroke-linejoin: round;
      }

      .cls-25 {
        font-size: 12.64px;
      }

      .cls-25, .cls-26 {
        stroke-width: 0.25px;
        font-family: QuicksandBold-Regular, Quicksand;
      }

      .cls-26 {
        font-size: 12.64px;
      }
    </style>
  </defs>
  <g id="Camada_2" data-name="Camada 2">
    <g id="ink">
      <path class="cls-1" d="M147.16,161.22c-1.06-.59-1.68-1.56-1.15-2.63s1.46-2.15,2.84-1.79a2.06,2.06,0,0,1,1.31,2.94A2.55,2.55,0,0,1,147.16,161.22Z" transform="translate(-35.37 -39.88)"/>
      <path class="cls-2" d="M144.86,78.1a1.65,1.65,0,0,1-.2-1.8,3.92,3.92,0,0,1,4.38-1c1.62,2.08,1.49,3.62-1.34,4.33C147,78.76,145.46,79.25,144.86,78.1Z" transform="translate(-35.37 -39.88)"/>
      <path class="cls-3" d="M158.75,165c-1.77.94-2.57-.24-2.75-1.61-.28-2.1,1.34-2.58,3-2.78.62-.1.92.23,1.09.77a10,10,0,0,1-.4,2.49A2,2,0,0,1,158.75,165Z" transform="translate(-35.37 -39.88)"/>
      <path class="cls-4" d="M178,149.5a2,2,0,0,1,2.36-1.53,1.68,1.68,0,0,1,1.59,1.94c-.31,1.55-1.81,1.38-2.94,1.4S177.91,150.44,178,149.5Z" transform="translate(-35.37 -39.88)"/>
      <path class="cls-5" d="M126.9,127.85a1.58,1.58,0,0,1-1.08-2.21c.38-1.26,1.2-1.77,2.44-1.28s.94,1.42.69,2.38C128.66,127.88,128.05,128.32,126.9,127.85Z" transform="translate(-35.37 -39.88)"/>
      <path class="cls-6" d="M107.05,162.6c-1.25-.19-2-.68-1.5-1.88a2,2,0,0,1,2.57-1.35,2.08,2.08,0,0,1,1.35,2.59C109.11,163.87,107.75,162.33,107.05,162.6Z" transform="translate(-35.37 -39.88)"/>
      <path class="cls-7" d="M161.83,149.07c.66,2.52-1.69,2.89-3,3.38-.82.3-.84-1.3-.43-2.21C159.39,149.37,160.38,148.54,161.83,149.07Z" transform="translate(-35.37 -39.88)"/>
      <path class="cls-8" d="M170.88,158.19c-1-.14-1.31-.63-.92-1.37s.83-1.55,1.68-1.09c.52.28,1.66.66,1.15,1.69A1.79,1.79,0,0,1,170.88,158.19Z" transform="translate(-35.37 -39.88)"/>
      <path class="cls-9" d="M152.9,104.15a1.11,1.11,0,0,1-1.58.63c-1.31-.45-.83-1.49-.6-2.27a1,1,0,0,1,1.58-.45A1.73,1.73,0,0,1,152.9,104.15Z" transform="translate(-35.37 -39.88)"/>
      <path class="cls-10" d="M161.83,149.07c-1.26,0-1.91,1.82-3.41,1.17.21-1-.08-2.47,1-2.84S161.33,148.05,161.83,149.07Z" transform="translate(-35.37 -39.88)"/>
      <path class="cls-11" d="M134.31,175.42c.23-1.06.44-1.68,1.35-1.43a1.27,1.27,0,0,1,1.07,1.43,1.43,1.43,0,0,1-1.69,1.3C134.45,176.62,134.22,175.77,134.31,175.42Z" transform="translate(-35.37 -39.88)"/>
      <path class="cls-12" d="M149,75.31l-4.38,1C145.34,72.53,147.35,74.61,149,75.31Z" transform="translate(-35.37 -39.88)"/>
      <path class="cls-13" d="M159.71,161.85l-.69-1.22c3-.41,4,.61,2.49,3.47a.74.74,0,0,1-.89,0A4.3,4.3,0,0,1,159.71,161.85Z" transform="translate(-35.37 -39.88)"/>
      <path class="cls-14" d="M141.05,76.78a1.14,1.14,0,0,1-1.72.59c-.67-.36-1.51-.81-.93-1.77a1.29,1.29,0,0,1,1.67-.65A1.78,1.78,0,0,1,141.05,76.78Z" transform="translate(-35.37 -39.88)"/>
      <path d="M117.76,75c.28-.83.85-.82,1.56-.59a1.08,1.08,0,0,1,.77,1.51c-.31,1-1,1-1.86.69S117.55,75.65,117.76,75Z" transform="translate(-35.37 -39.88)"/>
      <path class="cls-15" d="M183.42,132.07c.3-.56.43-1.44,1.33-1.13.63.22.38.89.25,1.38s-.39,1.07-1,1C183.15,133.24,183.43,132.58,183.42,132.07Z" transform="translate(-35.37 -39.88)"/>
      <path class="cls-16" d="M153.09,173.24a.83.83,0,0,1-.5-1.22,1.58,1.58,0,0,1,1.25-.69c.71.14,1,.78.58,1.48A1,1,0,0,1,153.09,173.24Z" transform="translate(-35.37 -39.88)"/>
      <path class="cls-14" d="M156.55,150.13c-.74.55-1.42,1.12-2.21.68-.36-.21-.78-.93-.67-1.24.27-.71,1-1.32,1.77-.89C155.93,148.94,156.19,149.63,156.55,150.13Z" transform="translate(-35.37 -39.88)"/>
      <path class="cls-17" d="M155.14,84.93a3.64,3.64,0,0,1,.52,1.12c.06.58-.33.93-.95.85a1,1,0,0,1-1-1.32C153.81,85.07,154.3,84.79,155.14,84.93Z" transform="translate(-35.37 -39.88)"/>
      <path class="cls-9" d="M80.42,81.92c-.7-.4-1.07-.88-.76-1.64A.92.92,0,0,1,81,79.75a1.27,1.27,0,0,1,.73,1.63C81.43,82.07,80.83,81.82,80.42,81.92Z" transform="translate(-35.37 -39.88)"/>
      <path class="cls-18" d="M160.8,163.88l.71.22c-.32,2.11-1.7,1-2.76.92l.49-1.63A1.15,1.15,0,0,1,160.8,163.88Z" transform="translate(-35.37 -39.88)"/>
      <path class="cls-19" d="M142.79,161.67c-.5.91-1.16.53-1.75.45-.4-.06-.82-.28-.49-.7a1.49,1.49,0,0,1,2-.6C142.73,160.94,142.73,161.44,142.79,161.67Z" transform="translate(-35.37 -39.88)"/>
      <path class="cls-20" d="M139.54,88.53c-.36-.34-.95-.59-.64-1.26a1.09,1.09,0,0,1,2,.85C140.61,88.75,140.06,88.62,139.54,88.53Z" transform="translate(-35.37 -39.88)"/>
      <path class="cls-21" d="M144.86,78.1c1,.38,2.24.38,2.84,1.54C147,78.68,144.56,80.91,144.86,78.1Z" transform="translate(-35.37 -39.88)"/>
      <path class="cls-22" d="M117.62,87.82c-.52-.32-.36-.84-.27-1.34s.53-.52.9-.43a.9.9,0,0,1,.74,1.19C118.81,87.8,118.24,87.91,117.62,87.82Z" transform="translate(-35.37 -39.88)"/>
      <path class="cls-7" d="M160.8,163.88l-1.56-.49c-.57-.73-.42-1.25.47-1.54A1.57,1.57,0,0,1,160.8,163.88Z" transform="translate(-35.37 -39.88)"/>
    </g>
    <circle class="cls-23" cx="89.63" cy="85.12" r="70"/>
    <g>
      <path class="cls-24" d="M95.3,112.3v48.64a6.63,6.63,0,0,1-6.73,6.73,6.7,6.7,0,0,1-6.74-6.73V112.3a6.66,6.66,0,0,1,6.74-6.86A6.59,6.59,0,0,1,95.3,112.3Z" transform="translate(-35.37 -39.88)"/>
      <path class="cls-23" d="M168.75,131.26v29.8a6.55,6.55,0,0,1-6.49,6.61,6.74,6.74,0,0,1-6.61-6.61v-29.8a12.8,12.8,0,0,0-13-12.6,12.45,12.45,0,0,0-12.47,12.6v29.8a2.48,2.48,0,0,1-.25,1.25,6.83,6.83,0,0,1-6.61,5.36,6.57,6.57,0,0,1-6.61-6.61V111.93a6.57,6.57,0,0,1,6.61-6.61,6.74,6.74,0,0,1,6.11,3.86,24.87,24.87,0,0,1,13.22-3.86A26.1,26.1,0,0,1,168.75,131.26Z" transform="translate(-35.37 -39.88)"/>
      <circle class="cls-24" cx="52.62" cy="49.19" r="6.73"/>
    </g>
    <g id="external">
      <text class="cls-25" transform="translate(84.74 10.87)">#</text>
      <text class="cls-25" transform="translate(156.46 39.39)">/&gt;</text>
      <text class="cls-25" transform="translate(142.04 150.44)">%</text>
      <text class="cls-26" transform="matrix(0.87, -0.5, 0.5, 0.87, 31.03, 32.45)">|</text>
      <text class="cls-25" transform="translate(1.36 96.35) rotate(30)">&amp;&amp;</text>
      <text class="cls-25" transform="translate(61.07 168.08)">°</text>
    </g>
  </g>
</svg>
