<svg xmlns="http://www.w3.org/2000/svg" width="140.38" height="263.58" viewBox="0 0 140.38 263.58">
  <g id="infoicon">
    <path d="M.74,112c-2.32-5.79,1.15-8.24,5.68-10.47C30.69,89.57,55.88,80.75,83,78.1a44.68,44.68,0,0,1,17.4,1.37c8.53,2.55,12.46,8.3,11.6,17.15a34.26,34.26,0,0,1-1.12,6C101,137.6,91.94,172.74,82.77,207.87c-.81,3.1-1.79,6.18-1.7,9.47.22,7.92,3.9,12.42,11.66,14.17,8.83,2,17.49.67,26.07-1.4a66.25,66.25,0,0,0,18.79-7.22c1.45-.88,1.82-.33,1.91,1.12.22,3.31.45,6.63.84,9.92a3.05,3.05,0,0,1-1.64,3.33c-6.86,4.39-14.29,7.61-21.81,10.63-16.16,6.51-32.7,11.72-49.94,14.47a73,73,0,0,1-21.58.7,30.59,30.59,0,0,1-6.8-1.67c-6.67-2.52-9.95-7.21-10-14.28a31.7,31.7,0,0,1,1.19-8.38q14.06-52.46,28.07-104.92c1.11-4.14,2.25-8.31,1.58-12.68-.9-5.85-4.87-9.72-11.58-11.18-8.71-1.9-17.3-.85-25.78,1.32-6.63,1.7-13.16,3.72-19,7.37-1.53,1-1.79.26-1.86-1.13C1.1,115.66.9,113.81.74,112Z"/>
    <path d="M129.11,32.91A32.8,32.8,0,1,1,96.43,0,32.81,32.81,0,0,1,129.11,32.91Z"/>
  </g>
</svg>
