<svg xmlns="http://www.w3.org/2000/svg" width="205.96" height="200" viewBox="0 0 205.96 200">
  <defs>
    <style>
      .cls-1 {
        fill: none;
        stroke: #000;
        stroke-miterlimit: 10;
        stroke-width: 6px;
      }
      .done-remove-selected-icons {
        fill: transparent;
        transition: .2s ease all;
      }
      #tampa {
        transition: .2s ease all;
      }
      #remove-done:hover > .done-remove-selected-icons {
        fill: green;
      }
      #remove-done:hover > #tampa {
        transform: rotate(-45deg);
        left: -45px;
        top: 45px;
      }
    </style>
  </defs>
  <g id="remove-done">
    <path id="vaso" class="cls-1" d="M179,53V162a35,35,0,0,1-35,35H56a35,35,0,0,1-35-35V53"/>
    <path id="done" d="M122,54.56s18.26,26.69,21,51.67c0,0,27.08-84.17,63-84,0,0-33-8.19-63,58.77C143,81,134.8,64,122,54.56Z"/>
    <path class="done-remove-selected-icons" id="done-2" data-name="done" d="M74,33.56S92.26,60.25,95,85.23c0,0,27.08-84.17,63-84C158,1.27,125-6.92,95,60,95,60,86.8,43,74,33.56Z"/>
    <path class="done-remove-selected-icons" id="done-3" data-name="done" d="M111,111s-12.9,18.86-14.83,36.51c0,0-19.14-59.48-44.5-59.33,0,0,23.29-5.78,44.5,41.53C96.15,129.75,101.93,117.69,111,111Z"/>
    <path class="done-remove-selected-icons" id="done-4" data-name="done" d="M111,145.54s8.49,12.4,9.75,24c0,0,12.59-39.11,29.27-39,0,0-15.32-3.8-29.27,27.32C120.71,157.85,116.91,149.91,111,145.54Z"/>
    <path id="tampa" d="M200,33.5a8.5,8.5,0,0,1-8.5,8.5H8.5a8.5,8.5,0,0,1,0-17H95a13,13,0,1,1,10,0H191.5A8.51,8.51,0,0,1,200,33.5Z"/>
  </g>
</svg>
