<svg xmlns="http://www.w3.org/2000/svg" width="30" height="30" viewBox="0 0 200 200">
  <defs>
    <style>
      .cls-1 {
        fill: none;
        stroke: #000;
        stroke-miterlimit: 10;
        stroke-width: 6px;
      }
      #body-click {
        fill: transparent;
        stroke-width: 3px;
        stroke: red;
      }
      #body-click:hover {
        fill: rgba(255, 0, 0, .4);
      }
      #tampa {
        transition: .2s linear all;
      }
      #body-click:hover + #tampa, #tampa:hover {
        transform: origin(0, 0);
        transform: rotate(-3deg);
      }
    </style>
  </defs>
  <g id="Camada_2" data-name="Camada 2">
    <g id="trash">
      <path id="vaso" class="cls-1" d="M5,65.16,33.94,148l14.9,42.66A9.64,9.64,0,0,0,58,197h90.47a9.64,9.64,0,0,0,9.25-6.53L171.38,148l26.69-83.08C200,59,195.32,53,188.82,53H14.18C7.58,53,2.92,59.18,5,65.16Z"/>
      <path id="vaso-detalhe" class="cls-1" d="M33.94,150S60.51,129,101.5,129.11c20.26.08,44,5.35,69.88,20.89"/>
      <rect id="body-click" width="200" height="200"/>
      <path id="tampa" d="M201.5,34.5A8.5,8.5,0,0,1,193,43H10a8.5,8.5,0,0,1,0-17H96.49a13,13,0,1,1,10,0H193A8.51,8.51,0,0,1,201.5,34.5Z"/>
    </g>
  </g>
</svg>
