<svg xmlns="http://www.w3.org/2000/svg" width="88.6" height="102.92" viewBox="0 0 88.6 102.92">
  <defs>
    <style>
      .cls-1, .cls-2 {
        fill: none;
        stroke: #fff;
        stroke-miterlimit: 10;
      }

      .cls-2 {
        stroke-width: 0.5px;
      }
    </style>
  </defs>
  <g id="Camada_2" data-name="Camada 2">
    <g id="Camada_1-2" data-name="Camada 1">
      <g id="coke">
        <path class="cls-1" d="M20.1,101.26A32.77,32.77,0,0,1,9.93,93,32.79,32.79,0,0,1,1.66,82.82c-3.07-6.19.92-7.54.92-7.54l41-41s5.71-3,7.32-1.66l2.67-2.67L73,49.35,70.3,52c1.34,1.62-1.66,7.33-1.66,7.33l-41,41S26.29,104.32,20.1,101.26Z"/>
        <g id="recheio">
          <circle class="cls-2" cx="34.78" cy="68.72" r="3.42"/>
          <circle class="cls-2" cx="37.74" cy="50.79" r="4.5"/>
          <circle class="cls-2" cx="25.74" cy="88.79" r="4.5"/>
          <circle class="cls-2" cx="59.74" cy="50.79" r="4.5"/>
          <circle class="cls-2" cx="8.92" cy="78.62" r="2.67"/>
          <circle class="cls-2" cx="51.74" cy="63.79" r="4.5"/>
        </g>
        <polygon class="cls-2" points="68.37 44.75 88.25 1.29 84.25 0.29 65.94 42.32 68.37 44.75"/>
      </g>
    </g>
  </g>
</svg>
