<svg xmlns="http://www.w3.org/2000/svg" width="54.87" height="243.64" viewBox="0 0 54.87 243.64">
  <defs>
    <style>
      .cls-1 {
        opacity: 0.59;
      }

      .cls-2 {
        fill: #d8cdc7;
      }
    </style>
  </defs>
  <g id="Camada_2" data-name="Camada 2">
    <g id="Camada_1-2" data-name="Camada 1">
      <g id="fork" class="cls-1">
        <path class="cls-2" d="M31.93,31.49c0,8.71.17,17.42-.09,26.12a5.68,5.68,0,0,0,5.59,5.58c2.88.16,5.1-2.14,5-5.48-.12-7-.41-14-.62-21-.23-7.74-.44-15.49-.7-23.23-.1-2.94-.35-5.88-.42-8.83C40.68,1.94,42,.45,44.5.06a4.62,4.62,0,0,1,5.17,3.46A73.71,73.71,0,0,1,50.43,11c.78,9,1.64,17.9,2.28,26.86.8,11.31,1.39,22.65,2.12,34,.41,6.44-2.08,11.8-6.19,16.49a30.34,30.34,0,0,1-5.86,5.35c-4.39,2.9-6.13,7.1-6.93,12-1.39,8.45-.75,16.9-.14,25.36.54,7.49.92,15,1.49,22.5.61,8,1.4,16,2,24,1.2,15,2.68,30,1.86,45-.29,5.28-1,10.56-3.76,15.28-4.15,7.19-14.37,7.92-19,1.09a21.6,21.6,0,0,1-3.58-9.33A141.4,141.4,0,0,1,13.66,208c.56-13.69,1.78-27.35,2.75-41,1.13-16,2.53-32,3.3-48.08.26-5.58-.81-11.26-1.65-16.84-.5-3.28-2.53-5.81-5.32-7.82C7.28,90.3,2.35,85.59.87,78.82A52.25,52.25,0,0,1,.2,64.35c1-15.43,2.45-30.83,3.7-46.25q.54-6.6.95-13.23A4.87,4.87,0,0,1,10,0c2.79.22,4.21,2.07,4.09,5.21q-.87,24.33-1.72,48.64a34.3,34.3,0,0,0,0,5.07,4.75,4.75,0,0,0,5.28,4.21c3.09-.33,5.07-2.27,5.07-5q0-26.22,0-52.45c0-1.89.14-3.7,2-4.85A4.64,4.64,0,0,1,32,4.71c-.19,8.93-.06,17.86-.06,26.78Z"/>
      </g>
    </g>
  </g>
</svg>
