<svg xmlns="http://www.w3.org/2000/svg" width="118.5" height="118.5" viewBox="0 0 118.5 118.5">
  <defs>
    <style>
      .cls-1 {
        fill: none;
        stroke: #fff;
        stroke-miterlimit: 10;
        stroke-width: 0.5px;
      }
    </style>
  </defs>
  <g id="Camada_2" data-name="Camada 2">
    <g id="Camada_1-2" data-name="Camada 1">
      <g id="circle_type_1">
        <path id="circle4" class="cls-1" d="M75.25,59.25c0,32.58,16.58,59-16,59a59,59,0,1,1,59-59"/>
        <path id="circle3" class="cls-1" d="M66.75,59c0,28,20.28,50.75-7.75,50.75A50.75,50.75,0,1,1,109.75,59"/>
        <path id="circle2" class="cls-1" d="M58.75,59c0,23.61,23.86,42.75.25,42.75A42.75,42.75,0,1,1,101.75,59"/>
        <path id="circle1" class="cls-1" d="M49.25,59.25c0,18.23,28.23,33,10,33a33,33,0,1,1,33-33"/>
      </g>
    </g>
  </g>
</svg>
