<svg
  xmlns="http://www.w3.org/2000/svg"
  viewBox="0 0 388 379.96"
>
  <defs>
    <style>
      .cls-1 {
        fill:#d8cdc7;
      }
      .cls-2 {
        fill:#c1272d;
      }
      .cls-3 {
        fill:#fbb03b;
      }
    </style>
  </defs>
  <title>to svg logo</title>
  <g id="Camada_2" data-name="Camada 2">
    <g id="logo">
      <path
        id="table"
        class="cls-1"
        d="M388,186c0,107.15-86.86,194-194,194S0,293.11,0,186s42.86,18,150,18S388,78.82,388,186Z"
      />
      <g id="pan">
        <circle
          id="shadow"
          cx="163"
          cy="192.96"
          r="80.5"
        />
        <path
          id="border"
          class="cls-2"
          d="M154,113.46A80.5,80.5,0,1,0,234.5,194,80.51,80.51,0,0,0,154,113.46Zm0,147A66.5,66.5,0,1,1,220.5,194,66.5,66.5,0,0,1,154,260.46Z"/><circle id="internal" class="cls-3" cx="153" cy="192.96" r="65.5"/><path id="cable" d="M119.55,121.19,78.5,3.46,88.66.29a6.3,6.3,0,0,1,7.84,4L135,115.72Z"/></g><g id="two_factor" data-name="two factor"><path id="fork" d="M290.08,275.83c-2,3.3-3.89,6.63-6,9.86a2.5,2.5,0,0,0,.85,3.38,2.17,2.17,0,0,0,3.15-.92c1.55-2.68,3-5.39,4.54-8.09,1.66-3,3.34-6,5-8.94.63-1.14,1.21-2.31,1.85-3.44a1.77,1.77,0,0,1,2.46-.88,2,2,0,0,1,1.17,2.48,31.19,31.19,0,0,1-1.4,3c-1.74,3.56-3.44,7.14-5.24,10.68-2.26,4.46-4.61,8.88-6.9,13.33a9.82,9.82,0,0,1-6.09,4.83,13.5,13.5,0,0,1-3.43.7,7.19,7.19,0,0,0-5.35,3,47.54,47.54,0,0,0-5.8,9.56c-1.5,3-3.06,5.89-4.55,8.85-1.58,3.17-3.1,6.37-4.67,9.54-2.95,5.94-5.79,11.95-9.52,17.46a14.87,14.87,0,0,1-4.89,4.93,5,5,0,0,1-7.44-3.91,9.33,9.33,0,0,1,.76-4.34,60.93,60.93,0,0,1,4.49-8.4c3.31-5,6.88-9.94,10.34-14.9,4.07-5.8,8.23-11.54,12.17-17.43a39,39,0,0,0,3.2-6.75,5.26,5.26,0,0,0-.24-4.16c-1.17-2.74-2-5.64-1-8.53a23.21,23.21,0,0,1,3-5.63c3.9-5.6,7.93-11.11,11.9-16.65q1.71-2.39,3.36-4.79a2.16,2.16,0,0,1,3.06-.67c1,.72,1.12,1.74.36,2.9l-11.69,18a13.89,13.89,0,0,0-1.13,1.93,2.09,2.09,0,0,0,1,2.79,2.24,2.24,0,0,0,3.06-.75L292.49,264c.43-.71.89-1.36,1.84-1.38a2,2,0,0,1,1.85,3.11c-2.1,3.34-4.07,6.74-6.1,10.12Z"/><path id="knife" d="M219.22,306.48l25.83-39.81a9.53,9.53,0,0,1,.9-1.19c.59-.64,1.3-.59,1.63.21a6.4,6.4,0,0,1,.48,2.16,30.6,30.6,0,0,1-1.3,8.91A99.12,99.12,0,0,1,240.3,294a169.12,169.12,0,0,1-8.38,15.22,7.89,7.89,0,0,1-5.24,3.89c-2,.4-3,1.63-3.81,3.28-2.11,4-4.32,8-6.49,12-1.7,3.16-3.39,6.32-5.1,9.47s-3.43,6.28-5.15,9.43c-.92,1.7-1.88,3.38-2.73,5.11a5.09,5.09,0,0,1-7.61,2.15A6.93,6.93,0,0,1,193,352a4.93,4.93,0,0,1,.24-5.15q12.25-19.1,24.5-38.21c.47-.74.95-1.47,1.43-2.2Z"/><path d="M147.3,214.88a23.82,23.82,0,0,1-12.82,9.8,29.71,29.71,0,0,1-6.4,1c-2,.17-3.74.58-4.91,2.41-1.38,2.15-3,4.15-4.29,6.34-4.8,8.12-9.58,16.27-14.25,24.47-4.19,7.34-8.16,14.81-12.38,22.14-2.92,5.08-5.9,10.17-10.1,14.35a18.19,18.19,0,0,1-3.28,2.58,6.14,6.14,0,0,1-7.38-.33A6,6,0,0,1,69,290.86a29.63,29.63,0,0,1,2.44-6.5c3-5.84,7.18-10.94,11.22-16.09,5.64-7.19,11.34-14.33,16.88-21.59,5.17-6.8,10.18-13.73,15.22-20.64a28.33,28.33,0,0,0,2.12-3.62c.75-1.42.33-2.86-.22-4.2a20.69,20.69,0,0,1-.25-16.26c4.75-11.56,12.89-19.47,25.42-22.23a11,11,0,0,1,6.15.41c2.83,1,4.33,3.3,5.27,6,1.62,4.69,1.37,9.44.43,14.21A40.35,40.35,0,0,1,147.3,214.88Z"
        />
      </g>
    </g>
  </g>
</svg>